<mxfile host="app.diagrams.net" modified="2024-02-20T07:48:42.329Z" agent="Mozilla/5.0 (Windows NT 10.0; Win64; x64) AppleWebKit/537.36 (KHTML, like Gecko) Chrome/121.0.0.0 Safari/537.36" etag="EXa0ILxThC7ntAMyKjtZ" version="23.1.5" type="device">
  <diagram name="Страница — 1" id="lY9jXbK5P16rbJda8Dox">
    <mxGraphModel dx="2474" dy="2017" grid="1" gridSize="10" guides="1" tooltips="1" connect="1" arrows="1" fold="1" page="1" pageScale="1" pageWidth="827" pageHeight="1169" math="0" shadow="0">
      <root>
        <mxCell id="0" />
        <mxCell id="1" parent="0" />
        <mxCell id="DqzX1KBHUqtfUzcQVXpf-1" value="news" style="shape=table;startSize=30;container=1;collapsible=0;childLayout=tableLayout;strokeColor=default;fontSize=16;" vertex="1" parent="1">
          <mxGeometry x="-540" y="30" width="410" height="110" as="geometry" />
        </mxCell>
        <mxCell id="DqzX1KBHUqtfUzcQVXpf-2" value="" style="shape=tableRow;horizontal=0;startSize=0;swimlaneHead=0;swimlaneBody=0;strokeColor=inherit;top=0;left=0;bottom=0;right=0;collapsible=0;dropTarget=0;fillColor=none;points=[[0,0.5],[1,0.5]];portConstraint=eastwest;fontSize=16;" vertex="1" parent="DqzX1KBHUqtfUzcQVXpf-1">
          <mxGeometry y="30" width="410" height="40" as="geometry" />
        </mxCell>
        <mxCell id="DqzX1KBHUqtfUzcQVXpf-3" value="id (PK)" style="shape=partialRectangle;html=1;whiteSpace=wrap;connectable=0;strokeColor=inherit;overflow=hidden;fillColor=none;top=0;left=0;bottom=0;right=0;pointerEvents=1;fontSize=16;" vertex="1" parent="DqzX1KBHUqtfUzcQVXpf-2">
          <mxGeometry width="60" height="40" as="geometry">
            <mxRectangle width="60" height="40" as="alternateBounds" />
          </mxGeometry>
        </mxCell>
        <mxCell id="DqzX1KBHUqtfUzcQVXpf-4" value="source_id(FK)" style="shape=partialRectangle;html=1;whiteSpace=wrap;connectable=0;strokeColor=inherit;overflow=hidden;fillColor=none;top=0;left=0;bottom=0;right=0;pointerEvents=1;fontSize=16;" vertex="1" parent="DqzX1KBHUqtfUzcQVXpf-2">
          <mxGeometry x="60" width="110" height="40" as="geometry">
            <mxRectangle width="110" height="40" as="alternateBounds" />
          </mxGeometry>
        </mxCell>
        <mxCell id="DqzX1KBHUqtfUzcQVXpf-5" value="text" style="shape=partialRectangle;html=1;whiteSpace=wrap;connectable=0;strokeColor=inherit;overflow=hidden;fillColor=none;top=0;left=0;bottom=0;right=0;pointerEvents=1;fontSize=16;" vertex="1" parent="DqzX1KBHUqtfUzcQVXpf-2">
          <mxGeometry x="170" width="70" height="40" as="geometry">
            <mxRectangle width="70" height="40" as="alternateBounds" />
          </mxGeometry>
        </mxCell>
        <mxCell id="DqzX1KBHUqtfUzcQVXpf-15" value="date" style="shape=partialRectangle;html=1;whiteSpace=wrap;connectable=0;strokeColor=inherit;overflow=hidden;fillColor=none;top=0;left=0;bottom=0;right=0;pointerEvents=1;fontSize=16;" vertex="1" parent="DqzX1KBHUqtfUzcQVXpf-2">
          <mxGeometry x="240" width="80" height="40" as="geometry">
            <mxRectangle width="80" height="40" as="alternateBounds" />
          </mxGeometry>
        </mxCell>
        <mxCell id="DqzX1KBHUqtfUzcQVXpf-18" value="url" style="shape=partialRectangle;html=1;whiteSpace=wrap;connectable=0;strokeColor=inherit;overflow=hidden;fillColor=none;top=0;left=0;bottom=0;right=0;pointerEvents=1;fontSize=16;" vertex="1" parent="DqzX1KBHUqtfUzcQVXpf-2">
          <mxGeometry x="320" width="90" height="40" as="geometry">
            <mxRectangle width="90" height="40" as="alternateBounds" />
          </mxGeometry>
        </mxCell>
        <mxCell id="DqzX1KBHUqtfUzcQVXpf-66" value="" style="shape=tableRow;horizontal=0;startSize=0;swimlaneHead=0;swimlaneBody=0;strokeColor=inherit;top=0;left=0;bottom=0;right=0;collapsible=0;dropTarget=0;fillColor=none;points=[[0,0.5],[1,0.5]];portConstraint=eastwest;fontSize=16;" vertex="1" parent="DqzX1KBHUqtfUzcQVXpf-1">
          <mxGeometry y="70" width="410" height="40" as="geometry" />
        </mxCell>
        <mxCell id="DqzX1KBHUqtfUzcQVXpf-67" value="uuid" style="shape=partialRectangle;html=1;whiteSpace=wrap;connectable=0;strokeColor=inherit;overflow=hidden;fillColor=none;top=0;left=0;bottom=0;right=0;pointerEvents=1;fontSize=16;" vertex="1" parent="DqzX1KBHUqtfUzcQVXpf-66">
          <mxGeometry width="60" height="40" as="geometry">
            <mxRectangle width="60" height="40" as="alternateBounds" />
          </mxGeometry>
        </mxCell>
        <mxCell id="DqzX1KBHUqtfUzcQVXpf-68" value="int" style="shape=partialRectangle;html=1;whiteSpace=wrap;connectable=0;strokeColor=inherit;overflow=hidden;fillColor=none;top=0;left=0;bottom=0;right=0;pointerEvents=1;fontSize=16;" vertex="1" parent="DqzX1KBHUqtfUzcQVXpf-66">
          <mxGeometry x="60" width="110" height="40" as="geometry">
            <mxRectangle width="110" height="40" as="alternateBounds" />
          </mxGeometry>
        </mxCell>
        <mxCell id="DqzX1KBHUqtfUzcQVXpf-69" value="str" style="shape=partialRectangle;html=1;whiteSpace=wrap;connectable=0;strokeColor=inherit;overflow=hidden;fillColor=none;top=0;left=0;bottom=0;right=0;pointerEvents=1;fontSize=16;" vertex="1" parent="DqzX1KBHUqtfUzcQVXpf-66">
          <mxGeometry x="170" width="70" height="40" as="geometry">
            <mxRectangle width="70" height="40" as="alternateBounds" />
          </mxGeometry>
        </mxCell>
        <mxCell id="DqzX1KBHUqtfUzcQVXpf-70" value="date" style="shape=partialRectangle;html=1;whiteSpace=wrap;connectable=0;strokeColor=inherit;overflow=hidden;fillColor=none;top=0;left=0;bottom=0;right=0;pointerEvents=1;fontSize=16;" vertex="1" parent="DqzX1KBHUqtfUzcQVXpf-66">
          <mxGeometry x="240" width="80" height="40" as="geometry">
            <mxRectangle width="80" height="40" as="alternateBounds" />
          </mxGeometry>
        </mxCell>
        <mxCell id="DqzX1KBHUqtfUzcQVXpf-71" value="str" style="shape=partialRectangle;html=1;whiteSpace=wrap;connectable=0;strokeColor=inherit;overflow=hidden;fillColor=none;top=0;left=0;bottom=0;right=0;pointerEvents=1;fontSize=16;" vertex="1" parent="DqzX1KBHUqtfUzcQVXpf-66">
          <mxGeometry x="320" width="90" height="40" as="geometry">
            <mxRectangle width="90" height="40" as="alternateBounds" />
          </mxGeometry>
        </mxCell>
        <mxCell id="DqzX1KBHUqtfUzcQVXpf-41" value="processed_news" style="shape=table;startSize=30;container=1;collapsible=0;childLayout=tableLayout;strokeColor=default;fontSize=16;" vertex="1" parent="1">
          <mxGeometry x="-690" y="230" width="510" height="160" as="geometry" />
        </mxCell>
        <mxCell id="DqzX1KBHUqtfUzcQVXpf-42" value="" style="shape=tableRow;horizontal=0;startSize=0;swimlaneHead=0;swimlaneBody=0;strokeColor=inherit;top=0;left=0;bottom=0;right=0;collapsible=0;dropTarget=0;fillColor=none;points=[[0,0.5],[1,0.5]];portConstraint=eastwest;fontSize=16;" vertex="1" parent="DqzX1KBHUqtfUzcQVXpf-41">
          <mxGeometry y="30" width="510" height="66" as="geometry" />
        </mxCell>
        <mxCell id="DqzX1KBHUqtfUzcQVXpf-85" value="id" style="shape=partialRectangle;html=1;whiteSpace=wrap;connectable=0;strokeColor=inherit;overflow=hidden;fillColor=none;top=0;left=0;bottom=0;right=0;pointerEvents=1;fontSize=16;" vertex="1" parent="DqzX1KBHUqtfUzcQVXpf-42">
          <mxGeometry width="80" height="66" as="geometry">
            <mxRectangle width="80" height="66" as="alternateBounds" />
          </mxGeometry>
        </mxCell>
        <mxCell id="DqzX1KBHUqtfUzcQVXpf-43" value="news_id(FK)" style="shape=partialRectangle;html=1;whiteSpace=wrap;connectable=0;strokeColor=inherit;overflow=hidden;fillColor=none;top=0;left=0;bottom=0;right=0;pointerEvents=1;fontSize=16;" vertex="1" parent="DqzX1KBHUqtfUzcQVXpf-42">
          <mxGeometry x="80" width="100" height="66" as="geometry">
            <mxRectangle width="100" height="66" as="alternateBounds" />
          </mxGeometry>
        </mxCell>
        <mxCell id="DqzX1KBHUqtfUzcQVXpf-44" value="class" style="shape=partialRectangle;html=1;whiteSpace=wrap;connectable=0;strokeColor=inherit;overflow=hidden;fillColor=none;top=0;left=0;bottom=0;right=0;pointerEvents=1;fontSize=16;" vertex="1" parent="DqzX1KBHUqtfUzcQVXpf-42">
          <mxGeometry x="180" width="40" height="66" as="geometry">
            <mxRectangle width="40" height="66" as="alternateBounds" />
          </mxGeometry>
        </mxCell>
        <mxCell id="DqzX1KBHUqtfUzcQVXpf-45" value="LOC" style="shape=partialRectangle;html=1;whiteSpace=wrap;connectable=0;strokeColor=inherit;overflow=hidden;fillColor=none;top=0;left=0;bottom=0;right=0;pointerEvents=1;fontSize=16;" vertex="1" parent="DqzX1KBHUqtfUzcQVXpf-42">
          <mxGeometry x="220" width="70" height="66" as="geometry">
            <mxRectangle width="70" height="66" as="alternateBounds" />
          </mxGeometry>
        </mxCell>
        <mxCell id="DqzX1KBHUqtfUzcQVXpf-54" value="PER" style="shape=partialRectangle;html=1;whiteSpace=wrap;connectable=0;strokeColor=inherit;overflow=hidden;fillColor=none;top=0;left=0;bottom=0;right=0;pointerEvents=1;fontSize=16;" vertex="1" parent="DqzX1KBHUqtfUzcQVXpf-42">
          <mxGeometry x="290" width="70" height="66" as="geometry">
            <mxRectangle width="70" height="66" as="alternateBounds" />
          </mxGeometry>
        </mxCell>
        <mxCell id="DqzX1KBHUqtfUzcQVXpf-60" value="ORG" style="shape=partialRectangle;html=1;whiteSpace=wrap;connectable=0;strokeColor=inherit;overflow=hidden;fillColor=none;top=0;left=0;bottom=0;right=0;pointerEvents=1;fontSize=16;" vertex="1" parent="DqzX1KBHUqtfUzcQVXpf-42">
          <mxGeometry x="360" width="70" height="66" as="geometry">
            <mxRectangle width="70" height="66" as="alternateBounds" />
          </mxGeometry>
        </mxCell>
        <mxCell id="DqzX1KBHUqtfUzcQVXpf-63" value="coords" style="shape=partialRectangle;html=1;whiteSpace=wrap;connectable=0;strokeColor=inherit;overflow=hidden;fillColor=none;top=0;left=0;bottom=0;right=0;pointerEvents=1;fontSize=16;" vertex="1" parent="DqzX1KBHUqtfUzcQVXpf-42">
          <mxGeometry x="430" width="80" height="66" as="geometry">
            <mxRectangle width="80" height="66" as="alternateBounds" />
          </mxGeometry>
        </mxCell>
        <mxCell id="DqzX1KBHUqtfUzcQVXpf-46" value="" style="shape=tableRow;horizontal=0;startSize=0;swimlaneHead=0;swimlaneBody=0;strokeColor=inherit;top=0;left=0;bottom=0;right=0;collapsible=0;dropTarget=0;fillColor=none;points=[[0,0.5],[1,0.5]];portConstraint=eastwest;fontSize=16;" vertex="1" parent="DqzX1KBHUqtfUzcQVXpf-41">
          <mxGeometry y="96" width="510" height="64" as="geometry" />
        </mxCell>
        <mxCell id="DqzX1KBHUqtfUzcQVXpf-86" value="uuid" style="shape=partialRectangle;html=1;whiteSpace=wrap;connectable=0;strokeColor=inherit;overflow=hidden;fillColor=none;top=0;left=0;bottom=0;right=0;pointerEvents=1;fontSize=16;" vertex="1" parent="DqzX1KBHUqtfUzcQVXpf-46">
          <mxGeometry width="80" height="64" as="geometry">
            <mxRectangle width="80" height="64" as="alternateBounds" />
          </mxGeometry>
        </mxCell>
        <mxCell id="DqzX1KBHUqtfUzcQVXpf-47" value="int" style="shape=partialRectangle;html=1;whiteSpace=wrap;connectable=0;strokeColor=inherit;overflow=hidden;fillColor=none;top=0;left=0;bottom=0;right=0;pointerEvents=1;fontSize=16;" vertex="1" parent="DqzX1KBHUqtfUzcQVXpf-46">
          <mxGeometry x="80" width="100" height="64" as="geometry">
            <mxRectangle width="100" height="64" as="alternateBounds" />
          </mxGeometry>
        </mxCell>
        <mxCell id="DqzX1KBHUqtfUzcQVXpf-48" value="int" style="shape=partialRectangle;html=1;whiteSpace=wrap;connectable=0;strokeColor=inherit;overflow=hidden;fillColor=none;top=0;left=0;bottom=0;right=0;pointerEvents=1;fontSize=16;" vertex="1" parent="DqzX1KBHUqtfUzcQVXpf-46">
          <mxGeometry x="180" width="40" height="64" as="geometry">
            <mxRectangle width="40" height="64" as="alternateBounds" />
          </mxGeometry>
        </mxCell>
        <mxCell id="DqzX1KBHUqtfUzcQVXpf-49" value="str" style="shape=partialRectangle;html=1;whiteSpace=wrap;connectable=0;strokeColor=inherit;overflow=hidden;fillColor=none;top=0;left=0;bottom=0;right=0;pointerEvents=1;fontSize=16;" vertex="1" parent="DqzX1KBHUqtfUzcQVXpf-46">
          <mxGeometry x="220" width="70" height="64" as="geometry">
            <mxRectangle width="70" height="64" as="alternateBounds" />
          </mxGeometry>
        </mxCell>
        <mxCell id="DqzX1KBHUqtfUzcQVXpf-55" value="str" style="shape=partialRectangle;html=1;whiteSpace=wrap;connectable=0;strokeColor=inherit;overflow=hidden;fillColor=none;top=0;left=0;bottom=0;right=0;pointerEvents=1;fontSize=16;" vertex="1" parent="DqzX1KBHUqtfUzcQVXpf-46">
          <mxGeometry x="290" width="70" height="64" as="geometry">
            <mxRectangle width="70" height="64" as="alternateBounds" />
          </mxGeometry>
        </mxCell>
        <mxCell id="DqzX1KBHUqtfUzcQVXpf-61" value="str" style="shape=partialRectangle;html=1;whiteSpace=wrap;connectable=0;strokeColor=inherit;overflow=hidden;fillColor=none;top=0;left=0;bottom=0;right=0;pointerEvents=1;fontSize=16;" vertex="1" parent="DqzX1KBHUqtfUzcQVXpf-46">
          <mxGeometry x="360" width="70" height="64" as="geometry">
            <mxRectangle width="70" height="64" as="alternateBounds" />
          </mxGeometry>
        </mxCell>
        <mxCell id="DqzX1KBHUqtfUzcQVXpf-64" value="array" style="shape=partialRectangle;html=1;whiteSpace=wrap;connectable=0;strokeColor=inherit;overflow=hidden;fillColor=none;top=0;left=0;bottom=0;right=0;pointerEvents=1;fontSize=16;" vertex="1" parent="DqzX1KBHUqtfUzcQVXpf-46">
          <mxGeometry x="430" width="80" height="64" as="geometry">
            <mxRectangle width="80" height="64" as="alternateBounds" />
          </mxGeometry>
        </mxCell>
        <mxCell id="DqzX1KBHUqtfUzcQVXpf-72" value="sources" style="shape=table;startSize=30;container=1;collapsible=0;childLayout=tableLayout;strokeColor=default;fontSize=16;" vertex="1" parent="1">
          <mxGeometry x="-380" y="-190" width="420" height="110" as="geometry" />
        </mxCell>
        <mxCell id="DqzX1KBHUqtfUzcQVXpf-73" value="" style="shape=tableRow;horizontal=0;startSize=0;swimlaneHead=0;swimlaneBody=0;strokeColor=inherit;top=0;left=0;bottom=0;right=0;collapsible=0;dropTarget=0;fillColor=none;points=[[0,0.5],[1,0.5]];portConstraint=eastwest;fontSize=16;" vertex="1" parent="DqzX1KBHUqtfUzcQVXpf-72">
          <mxGeometry y="30" width="420" height="40" as="geometry" />
        </mxCell>
        <mxCell id="DqzX1KBHUqtfUzcQVXpf-74" value="id (PK)" style="shape=partialRectangle;html=1;whiteSpace=wrap;connectable=0;strokeColor=inherit;overflow=hidden;fillColor=none;top=0;left=0;bottom=0;right=0;pointerEvents=1;fontSize=16;" vertex="1" parent="DqzX1KBHUqtfUzcQVXpf-73">
          <mxGeometry width="60" height="40" as="geometry">
            <mxRectangle width="60" height="40" as="alternateBounds" />
          </mxGeometry>
        </mxCell>
        <mxCell id="DqzX1KBHUqtfUzcQVXpf-75" value="url" style="shape=partialRectangle;html=1;whiteSpace=wrap;connectable=0;strokeColor=inherit;overflow=hidden;fillColor=none;top=0;left=0;bottom=0;right=0;pointerEvents=1;fontSize=16;" vertex="1" parent="DqzX1KBHUqtfUzcQVXpf-73">
          <mxGeometry x="60" width="70" height="40" as="geometry">
            <mxRectangle width="70" height="40" as="alternateBounds" />
          </mxGeometry>
        </mxCell>
        <mxCell id="DqzX1KBHUqtfUzcQVXpf-76" value="name" style="shape=partialRectangle;html=1;whiteSpace=wrap;connectable=0;strokeColor=inherit;overflow=hidden;fillColor=none;top=0;left=0;bottom=0;right=0;pointerEvents=1;fontSize=16;" vertex="1" parent="DqzX1KBHUqtfUzcQVXpf-73">
          <mxGeometry x="130" width="100" height="40" as="geometry">
            <mxRectangle width="100" height="40" as="alternateBounds" />
          </mxGeometry>
        </mxCell>
        <mxCell id="DqzX1KBHUqtfUzcQVXpf-87" value="user_count" style="shape=partialRectangle;html=1;whiteSpace=wrap;connectable=0;strokeColor=inherit;overflow=hidden;fillColor=none;top=0;left=0;bottom=0;right=0;pointerEvents=1;fontSize=16;" vertex="1" parent="DqzX1KBHUqtfUzcQVXpf-73">
          <mxGeometry x="230" width="100" height="40" as="geometry">
            <mxRectangle width="100" height="40" as="alternateBounds" />
          </mxGeometry>
        </mxCell>
        <mxCell id="DqzX1KBHUqtfUzcQVXpf-89" value="info" style="shape=partialRectangle;html=1;whiteSpace=wrap;connectable=0;strokeColor=inherit;overflow=hidden;fillColor=none;top=0;left=0;bottom=0;right=0;pointerEvents=1;fontSize=16;" vertex="1" parent="DqzX1KBHUqtfUzcQVXpf-73">
          <mxGeometry x="330" width="90" height="40" as="geometry">
            <mxRectangle width="90" height="40" as="alternateBounds" />
          </mxGeometry>
        </mxCell>
        <mxCell id="DqzX1KBHUqtfUzcQVXpf-77" value="" style="shape=tableRow;horizontal=0;startSize=0;swimlaneHead=0;swimlaneBody=0;strokeColor=inherit;top=0;left=0;bottom=0;right=0;collapsible=0;dropTarget=0;fillColor=none;points=[[0,0.5],[1,0.5]];portConstraint=eastwest;fontSize=16;" vertex="1" parent="DqzX1KBHUqtfUzcQVXpf-72">
          <mxGeometry y="70" width="420" height="40" as="geometry" />
        </mxCell>
        <mxCell id="DqzX1KBHUqtfUzcQVXpf-78" value="int" style="shape=partialRectangle;html=1;whiteSpace=wrap;connectable=0;strokeColor=inherit;overflow=hidden;fillColor=none;top=0;left=0;bottom=0;right=0;pointerEvents=1;fontSize=16;" vertex="1" parent="DqzX1KBHUqtfUzcQVXpf-77">
          <mxGeometry width="60" height="40" as="geometry">
            <mxRectangle width="60" height="40" as="alternateBounds" />
          </mxGeometry>
        </mxCell>
        <mxCell id="DqzX1KBHUqtfUzcQVXpf-79" value="str" style="shape=partialRectangle;html=1;whiteSpace=wrap;connectable=0;strokeColor=inherit;overflow=hidden;fillColor=none;top=0;left=0;bottom=0;right=0;pointerEvents=1;fontSize=16;" vertex="1" parent="DqzX1KBHUqtfUzcQVXpf-77">
          <mxGeometry x="60" width="70" height="40" as="geometry">
            <mxRectangle width="70" height="40" as="alternateBounds" />
          </mxGeometry>
        </mxCell>
        <mxCell id="DqzX1KBHUqtfUzcQVXpf-80" value="str" style="shape=partialRectangle;html=1;whiteSpace=wrap;connectable=0;strokeColor=inherit;overflow=hidden;fillColor=none;top=0;left=0;bottom=0;right=0;pointerEvents=1;fontSize=16;" vertex="1" parent="DqzX1KBHUqtfUzcQVXpf-77">
          <mxGeometry x="130" width="100" height="40" as="geometry">
            <mxRectangle width="100" height="40" as="alternateBounds" />
          </mxGeometry>
        </mxCell>
        <mxCell id="DqzX1KBHUqtfUzcQVXpf-88" value="int" style="shape=partialRectangle;html=1;whiteSpace=wrap;connectable=0;strokeColor=inherit;overflow=hidden;fillColor=none;top=0;left=0;bottom=0;right=0;pointerEvents=1;fontSize=16;" vertex="1" parent="DqzX1KBHUqtfUzcQVXpf-77">
          <mxGeometry x="230" width="100" height="40" as="geometry">
            <mxRectangle width="100" height="40" as="alternateBounds" />
          </mxGeometry>
        </mxCell>
        <mxCell id="DqzX1KBHUqtfUzcQVXpf-90" value="str" style="shape=partialRectangle;html=1;whiteSpace=wrap;connectable=0;strokeColor=inherit;overflow=hidden;fillColor=none;top=0;left=0;bottom=0;right=0;pointerEvents=1;fontSize=16;" vertex="1" parent="DqzX1KBHUqtfUzcQVXpf-77">
          <mxGeometry x="330" width="90" height="40" as="geometry">
            <mxRectangle width="90" height="40" as="alternateBounds" />
          </mxGeometry>
        </mxCell>
        <mxCell id="DqzX1KBHUqtfUzcQVXpf-93" style="edgeStyle=orthogonalEdgeStyle;rounded=0;orthogonalLoop=1;jettySize=auto;html=1;exitX=0;exitY=0.5;exitDx=0;exitDy=0;entryX=0.293;entryY=0;entryDx=0;entryDy=0;entryPerimeter=0;" edge="1" parent="1" source="DqzX1KBHUqtfUzcQVXpf-73" target="DqzX1KBHUqtfUzcQVXpf-2">
          <mxGeometry relative="1" as="geometry" />
        </mxCell>
        <mxCell id="DqzX1KBHUqtfUzcQVXpf-94" style="edgeStyle=orthogonalEdgeStyle;rounded=0;orthogonalLoop=1;jettySize=auto;html=1;exitX=0;exitY=0.5;exitDx=0;exitDy=0;entryX=0.254;entryY=0;entryDx=0;entryDy=0;entryPerimeter=0;" edge="1" parent="1" source="DqzX1KBHUqtfUzcQVXpf-2" target="DqzX1KBHUqtfUzcQVXpf-42">
          <mxGeometry relative="1" as="geometry" />
        </mxCell>
      </root>
    </mxGraphModel>
  </diagram>
</mxfile>
